# AST/ASF file generated using VICON BodyLanguage
# -----------------------------------------------
:version 1.10
:name VICON
:units
  mass 1.0
  length 0.45
  angle deg
:documentation
   .ast/.asf automatically generated from VICON data using
   VICON BodyBuilder and BodyLanguage model FoxedUp or BRILLIANT.MOD
:root
   order TX TY TZ RX RY RZ
   axis XYZ
   position 0 0 0  
   orientation 0 0 0 
:bonedata
  begin
     id 1 
     name lhipjoint
     direction 0.535335 -0.74333 0.401095 
     length 2.04549 
     axis 0 0 0  XYZ
  end
  begin
     id 2 
     name lfemur
     direction 0.34202 -0.939693 0  
     length 6.95643  
     axis 0 0 20  XYZ
    dof rx ry rz
    limits (-160.0 20.0)
           (-70.0 70.0)
           (-60.0 70.0)
  end
  begin
     id 3 
     name ltibia
     direction 0.34192 -0.939729 0   
     length 5.55969   
     axis 0 0 20   XYZ
    dof rx
    limits (-10.0 170.0)
  end
  begin
     id 4 
     name lfoot
     direction 0.216943 -0.596046 0.773088   
     length 2.27918   
     axis -90 7.62852e-016 20   XYZ
    dof rx rz
    limits (-45.0 90.0)
           (-70.0 20.0)
  end
  begin
     id 5 
     name ltoes
     direction 1.53519e-011 -4.21748e-011 1   
     length 1.05562   
     axis -90 7.62852e-016 20   XYZ
    dof rx
    limits (-90.0 20.0)
  end
  begin
     id 6 
     name rhipjoint
     direction -0.576368 -0.719173 0.38806   
     length 2.1142  
     axis 0 0 0  XYZ 
  end
  begin
     id 7 
     name rfemur
     direction -0.34202 -0.939693 0   
     length 7.07928   
     axis 0 0 -20   XYZ
    dof rx ry rz
    limits (-160.0 20.0)
           (-70.0 70.0)
           (-70.0 60.0)
  end
  begin
     id 8 
     name rtibia
     direction -0.34202 -0.939693 0   
     length 5.79974   
     axis 0 0 -20   XYZ
    dof rx
    limits (-10.0 170.0)
 end
 begin
     id 9 
     name rfoot
     direction -0.189288 -0.520065 0.832888   
     length 2.42173  
     axis -90 -7.62852e-016 -20   XYZ
    dof rx rz
    limits (-45.0 90.0)
           (-20.0 70.0)
  end
  begin
     id 10 
     name rtoes
     direction -1.53574e-011 -4.21658e-011 1   
     length 1.14469   
     axis -90 -7.62852e-016 -20   XYZ
    dof rx
    limits (-90.0 20.0)
  end
  begin
     id 11 
     name lowerback
     direction -0.00135702 0.993803 0.111144   
     length 1.91308   
     axis 0 0 0   XYZ
    dof rx ry rz
    limits (-20.0 45.0)
           (-30.0 30.0)
           (-30.0 30.0)
  end
  begin
     id 12 
     name upperback
     direction -0.0056745 0.999813 0.0184631   
     length 1.9212   
     axis 0 0 0   XYZ
    dof rx ry rz
    limits (-20.0 45.0)
           (-30.0 30.0)
           (-30.0 30.0)
  end
  begin
     id 13 
     name thorax
     direction -0.00733434 0.999426 -0.0330788   
     length 1.94196   
     axis 0 0 0   XYZ
    dof rx ry rz
    limits (-20.0 45.0)
           (-30.0 30.0)
           (-30.0 30.0)
  end
  begin
     id 14 
     name lowerneck
     direction 0.0563074 0.996944 -0.0541571   
     length 2.34257   
     axis 0 0 0   XYZ
    dof rx ry rz
    limits (-20.0 45.0)
           (-30.0 30.0)
           (-30.0 30.0)
  end
  begin
     id 15 
     name upperneck
     direction -0.0544519 0.976166 -0.210085   
     length 2.32506   
     axis 0 0 0   XYZ
    dof rx ry rz
    limits (-20.0 45.0)
           (-30.0 30.0)
           (-30.0 30.0)
  end
  begin
     id 16
     name head
     direction -0.0226035 0.997615 -0.0652205  
     length 2.3648  
     axis 0 0 0   XYZ
    dof rx ry rz
    limits (-20.0 45.0)
           (-30.0 30.0)
           (-30.0 30.0)
  end
  begin
     id 17 
     name lclavicle
     direction 0.92109 0.381297 -0.0787716  
     length 4.0487  
     axis 0 0 0   XYZ
    dof ry rz
    limits (-20.0 10.0)
           (0.0 20.0)
  end
  begin
     id 18 
     name lhumerus
     direction 1 -4.48986e-011 3.56724e-027   
     length 4.94991   
     axis 180 -30 -90   XYZ
    dof rx ry rz
    limits (-60.0 90.0)
           (-90.0 90.0)
           (-90.0 90.0)
  end
  begin
     id 19
     name lradius
     direction 1 -4.48981e-011 8.62147e-027   
     length 2.7606   
     axis 180 -30 -90   XYZ
    dof rx
    limits (-10.0 170.0)
  end
  begin
     id 20
     name lwrist
     direction 1 -4.48989e-011 1.59799e-026   
     length 1.3803   
     axis -1.17785e-014 90 90   XYZ
    dof ry
    limits (-180.0 0.0)
 end
  begin
     id 21 
     name lhand
     direction 1 -4.48896e-011 3.19599e-026   
     length 0.843936   
     axis -2.03931e-014 90 90   XYZ
    dof rx rz
    limits (-90.0 90.0)
           (-45.0 45.0)
  end
  begin
     id 22 
     name lfingers
     direction 1 -4.48887e-011 6.39197e-026   
     length 0.680403   
     axis -4.07862e-014 90 90   XYZ
    dof rx
    limits (0.0 90.0)
  end
  begin
     id 23
     name lthumb
     direction 0.707107 -6.348e-011 0.707107   
     length 0.976926   
     axis -90 45 2.85299e-015   XYZ
    dof rx rz
    limits (-45.0 45.0)
           (-45.0 45.0)
  end
  begin
     id 24 
     name rclavicle
     direction -0.951104 0.307692 -0.026953   
     length 4.21801  
     axis 0 0 0   XYZ 
    dof ry rz
    limits (-10.0 20.0)
           (-20.0 0.0)
  end
  begin
     id 25 
     name rhumerus
     direction -1 -4.4896e-011 -1.8171e-018  
     length 4.32982   
     axis 180 30 90   XYZ
    dof rx ry rz
    limits (-90.0 60.0)
           (-90.0 90.0)
           (-90.0 90.0)
  end
  begin
     id 26 
     name rradius
     direction -1 -4.48959e-011 8.25165e-027   
     length 3.20057   
     axis 180 30 90   XYZ
    dof rx
    limits (-10.0 170.0)
  end
  begin
     id 27 
     name rwrist
     direction -1 -4.48997e-011 1.59799e-026   
     length 1.60029   
     axis -1.17785e-014 -90 -90   XYZ
    dof ry
    limits (-180.0 0.0)
  end
  begin
     id 28
     name rhand
     direction -1 -4.49023e-011 3.19599e-026   
     length 0.960433   
     axis -2.03931e-014 -90 -90   XYZ
    dof rx rz
    limits (-90.0 90.0)
           (-45.0 45.0)
  end
  begin
     id 29
     name rfingers
     direction -1 -4.48802e-011 6.39197e-026   
     length 0.774326   
     axis -4.07862e-014 -90 -90   XYZ
    dof rx
    limits (0.0 90.0)
  end
  begin
     id 30
     name rthumb
     direction -0.707107 -6.34876e-011 0.707107   
     length 1.11178   
     axis -90 -45 -2.85299e-015   XYZ
    dof rx rz
    limits (-45.0 45.0)
           (-45.0 45.0)
  end
:hierarchy
  begin
    root lhipjoint rhipjoint lowerback
    lhipjoint lfemur
    lfemur ltibia
    ltibia lfoot
    lfoot ltoes
    rhipjoint rfemur
    rfemur rtibia
    rtibia rfoot
    rfoot rtoes
    lowerback upperback
    upperback thorax
    thorax lowerneck lclavicle rclavicle
    lowerneck upperneck
    upperneck head
    lclavicle lhumerus
    lhumerus lradius
    lradius lwrist
    lwrist lhand lthumb
    lhand lfingers
    rclavicle rhumerus
    rhumerus rradius
    rradius rwrist
    rwrist rhand rthumb
    rhand rfingers
end

#!OML:ASF C:\KaitlinTest1\Natural Motions\Nikki\Session 2\Nikki.ASF
:FULLY-SPECIFIED
:DEGREES
1
root -11.3252 16.4196 4.97921 -144.193 85.6193 -153.697
lowerback -12.9067 -3.22242 1.13498
upperback -4.26589 -4.22828 0.202177
thorax 2.67307 -2.02468 -1.05133
lowerneck -5.38852 -10.9127 -10.2559
upperneck 5.54409 39.4533 5.04125
head 164.229 64.919 -39.6148
rclavicle 5.74239e-014 1.17283e-014
rhumerus -37.278 -17.265 -83.1838
rradius 15.5404
rwrist 29.4873
rhand -36.7393 3.02337
rfingers 7.12502
rthumb -9.82313 -26.7275
lclavicle 5.74239e-014 1.17283e-014
lhumerus -43.7901 24.3249 75.6597
lradius 22.5884
lwrist -35.8262
lhand -35.6222 5.60791
lfingers 7.12502
lthumb -8.7452 35.4067
rfemur -14.2031 -14.4033 21.8298
rtibia 25.4162
rfoot -17.9191 10.6025
rtoes 6.44062e-014
lfemur -18.1588 14.7247 -17.7015
ltibia 28.0666
lfoot -11.7634 -16.2085
ltoes 6.36111e-015
2
root -11.3245 16.4202 4.97937 -144.264 85.6666 -153.801
lowerback -12.9265 -3.21739 1.10811
upperback -4.28816 -4.21659 0.192581
thorax 2.66203 -2.0185 -1.04494
lowerneck -5.35195 -10.905 -10.2637
upperneck 5.54646 39.4197 5.03572
head 164.175 64.9962 -39.6522
rclavicle -1.23246e-014 -5.56597e-015
rhumerus -37.2417 -17.1919 -83.2249
rradius 15.5427
rwrist 29.3154
rhand -36.7789 3.10383
rfingers 7.12502
rthumb -9.86135 -26.6452
lclavicle -1.23246e-014 -5.56597e-015
lhumerus -43.7939 24.3039 75.7161
lradius 22.6129
lwrist -35.8895
lhand -35.6345 5.51581
lfingers 7.12502
lthumb -8.75715 35.3141
rfemur -14.2452 -14.4495 21.8065
rtibia 25.4254
rfoot -17.92 10.6819
rtoes -9.93923e-014
lfemur -18.176 14.6938 -17.74
ltibia 28.0528
lfoot -11.7441 -16.1258
ltoes -2.70347e-014
3
root -11.3227 16.4194 4.97928 -144.027 85.7021 -153.569
lowerback -12.9203 -3.20713 1.11846
upperback -4.30485 -4.20319 0.187937
thorax 2.64044 -2.01192 -1.05256
lowerneck -5.30749 -10.8985 -10.2765
upperneck 5.54637 39.3717 5.0252
head 164.121 65.0677 -39.6799
rclavicle -3.25013e-014 1.78906e-015
rhumerus -37.1614 -16.6849 -83.5987
rradius 15.8102
rwrist 28.2178
rhand -36.5682 2.59719
rfingers 7.12502
rthumb -9.658 -27.1614
lclavicle -3.25013e-014 1.78906e-015
lhumerus -43.7732 24.177 75.8545
lradius 22.6663
lwrist -35.7571
lhand -35.6612 5.49088
lfingers 7.12502
lthumb -8.78287 35.2881
rfemur -14.2717 -14.4801 21.8015
rtibia 25.4744
rfoot -17.9524 10.7528
rtoes -1.19271e-014
lfemur -18.141 14.6622 -17.7385
ltibia 28.0076
lfoot -11.7219 -16.0549
ltoes -9.54166e-015
4
root -11.3221 16.4179 4.97969 -143.941 85.7318 -153.493
lowerback -12.9207 -3.20517 1.09542
upperback -4.29974 -4.19832 0.193458
thorax 2.64823 -2.00944 -1.03352
lowerneck -5.31366 -10.8896 -10.2986
upperneck 5.52277 39.312 5.00273
head 164.101 65.1384 -39.6874
rclavicle 7.47927e-015 3.97569e-016
rhumerus -37.096 -16.5981 -83.634
rradius 15.8244
rwrist 28.1653
rhand -36.5905 2.60744
rfingers 7.12502
rthumb -9.67955 -27.1502
lclavicle 7.47927e-015 3.97569e-016
lhumerus -43.697 24.0935 76.0018
lradius 22.7276
lwrist -35.705
lhand -35.699 5.49778
lfingers 7.12502
lthumb -8.81932 35.2935
rfemur -14.3008 -14.5059 21.7947
rtibia 25.5075
rfoot -17.9809 10.7938
rtoes -3.18055e-015
lfemur -18.0964 14.5143 -17.7159
ltibia 27.9742
lfoot -11.695 -15.9052
ltoes -1.90833e-014
5
root -11.3243 16.4184 4.98112 -144.451 85.7472 -153.983
lowerback -12.8257 -3.20549 1.04535
upperback -4.33558 -4.18991 0.17479
thorax 2.56188 -2.00607 -1.01674
lowerneck -5.24281 -10.892 -10.2998
upperneck 5.54134 39.2933 5.012
head 164.094 65.1628 -39.6826
rclavicle -1.03964e-013 -1.96797e-014
rhumerus -37.109 -16.5364 -83.6617
rradius 15.8689
rwrist 28.0662
rhand -36.5562 2.49981
rfingers 7.12502
rthumb -9.64643 -27.2593
lclavicle -1.03964e-013 -1.96797e-014
lhumerus -43.708 23.9098 76.1432
lradius 22.8472
lwrist -35.5861
lhand -35.6778 5.57027
lfingers 7.12502
lthumb -8.79893 35.3668
rfemur -14.2925 -14.4907 21.7538
rtibia 25.5231
rfoot -17.989 10.7747
rtoes 2.22639e-014
lfemur -18.0761 14.4429 -17.7427
ltibia 27.9617
lfoot -11.6796 -15.8455
ltoes 6.83819e-014
6
root -11.3233 16.4192 4.98137 -144.461 85.7669 -153.983
lowerback -12.8295 -3.18988 1.03704
upperback -4.32495 -4.16854 0.165378
thorax 2.57539 -1.99549 -1.0194
lowerneck -5.23821 -10.9173 -10.2841
upperneck 5.53289 39.2331 4.99461
head 163.939 65.2368 -39.7935
rclavicle 4.37326e-014 8.15017e-015
rhumerus -37.0809 -16.6123 -83.6258
rradius 15.879
rwrist 28.0868
rhand -36.5414 2.48479
rfingers 7.12502
rthumb -9.63214 -27.275
lclavicle 4.37326e-014 8.15017e-015
lhumerus -43.6363 23.7725 76.3173
lradius 22.9371
lwrist -35.3019
lhand -35.5165 5.62525
lfingers 7.12502
lthumb -8.64328 35.4283
rfemur -14.2807 -14.4886 21.7357
rtibia 25.5373
rfoot -18.0066 10.7936
rtoes 2.06736e-014
lfemur -18.0493 14.4481 -17.7496
ltibia 27.953
lfoot -11.7041 -15.8301
ltoes 7.95139e-014
7
root -11.3219 16.4205 4.98146 -144.292 85.7761 -153.825
lowerback -12.8439 -3.17334 1.0449
upperback -4.33557 -4.14676 0.160668
thorax 2.57166 -1.98448 -1.02596
lowerneck -5.19918 -10.9261 -10.2948
upperneck 5.53381 39.1889 4.98543
head 163.884 65.287 -39.8249
rclavicle -4.34344e-014 1.98785e-016
rhumerus -37.0542 -16.6613 -83.6051
rradius 15.8748
rwrist 28.0526
rhand -36.5221 2.3903
rfingers 7.12502
rthumb -9.61359 -27.3703
lclavicle -4.34344e-014 1.98785e-016
lhumerus -43.5906 23.6331 76.4727
lradius 22.9977
lwrist -35.0395
lhand -35.5638 5.52433
lfingers 7.12502
lthumb -8.6889 35.3255
rfemur -14.2897 -14.5318 21.7497
rtibia 25.5264
rfoot -18.0007 10.8476
rtoes 3.57812e-014
lfemur -18.0921 14.5989 -17.7735
ltibia 27.9693
lfoot -11.7257 -15.9511
ltoes 6.36111e-014
8
root -11.3209 16.4193 4.98094 -144.218 85.8075 -153.779
lowerback -12.8666 -3.15722 1.04764
upperback -4.34799 -4.12469 0.152207
thorax 2.57058 -1.97325 -1.03392
lowerneck -5.18133 -10.935 -10.3059
upperneck 5.52527 39.1388 4.9687
head 163.831 65.319 -39.8483
rclavicle 2.53202e-014 -3.97569e-015
rhumerus -37.0353 -16.7105 -83.5756
rradius 15.862
rwrist 28.1012
rhand -36.5103 2.26285
rfingers 7.12502
rthumb -9.6022 -27.4983
lclavicle 2.53202e-014 -3.97569e-015
lhumerus -43.5653 23.5016 76.6179
lradius 23.1214
lwrist -34.8706
lhand -35.5479 5.52957
lfingers 7.12502
lthumb -8.67351 35.3314
rfemur -14.3268 -14.596 21.7438
rtibia 25.5309
rfoot -18.0058 10.9382
rtoes -1.59028e-014
lfemur -18.1069 14.5655 -17.791
ltibia 27.9737
lfoot -11.7685 -15.8887
ltoes -5.88403e-014
9
root -11.318 16.418 4.98074 -143.845 85.8319 -153.431
lowerback -12.9277 -3.13176 1.08101
upperback -4.34945 -4.0944 0.138141
thorax 2.59935 -1.95769 -1.06621
lowerneck -5.15115 -10.9556 -10.2888
upperneck 5.52686 39.0891 4.96176
head 163.723 65.3683 -39.9193
rclavicle 2.5345e-014 -5.96354e-016
rhumerus -36.9922 -16.8638 -83.5016
rradius 15.7793
rwrist 28.2737
rhand -36.5097 2.1944
rfingers 7.12502
rthumb -9.60162 -27.5668
lclavicle 2.5345e-014 -5.96354e-016
lhumerus -43.4986 23.3341 76.7701
lradius 23.1865
lwrist -34.65
lhand -35.5776 5.49281
lfingers 7.12502
lthumb -8.70216 35.2934
rfemur -14.3495 -14.6236 21.7508
rtibia 25.5335
rfoot -17.9872 11.0173
rtoes 1.27222e-014
lfemur -18.1178 14.6138 -17.7945
ltibia 27.9802
lfoot -11.7813 -15.8974
ltoes -1.90833e-014
